<mxfile host="app.diagrams.net" modified="2023-09-27T07:48:08.266Z" agent="Mozilla/5.0 (Windows NT 10.0; Win64; x64) AppleWebKit/537.36 (KHTML, like Gecko) Chrome/117.0.0.0 Safari/537.36" etag="5MrAN22bGxti0v93UEAX" version="21.8.2" type="device">
  <diagram name="Page-1" id="e7e014a7-5840-1c2e-5031-d8a46d1fe8dd">
    <mxGraphModel dx="1050" dy="534" grid="1" gridSize="10" guides="1" tooltips="1" connect="1" arrows="1" fold="1" page="1" pageScale="1" pageWidth="1169" pageHeight="826" background="none" math="0" shadow="0">
      <root>
        <mxCell id="0" />
        <mxCell id="1" parent="0" />
        <mxCell id="5HN4UKg1Xnu_4getq7X6-49" value="Pharmacy Shop Management System" style="swimlane;childLayout=stackLayout;resizeParent=1;resizeParentMax=0;startSize=20;html=1;" parent="1" vertex="1">
          <mxGeometry x="220" y="60" width="740" height="530" as="geometry" />
        </mxCell>
        <mxCell id="5HN4UKg1Xnu_4getq7X6-50" value="Staff" style="swimlane;startSize=20;html=1;" parent="5HN4UKg1Xnu_4getq7X6-49" vertex="1">
          <mxGeometry y="20" width="220" height="510" as="geometry" />
        </mxCell>
        <mxCell id="5HN4UKg1Xnu_4getq7X6-69" style="rounded=0;orthogonalLoop=1;jettySize=auto;html=1;exitX=0.493;exitY=0.867;exitDx=0;exitDy=0;entryX=0.5;entryY=0;entryDx=0;entryDy=0;exitPerimeter=0;" parent="5HN4UKg1Xnu_4getq7X6-50" source="5" target="5HN4UKg1Xnu_4getq7X6-56" edge="1">
          <mxGeometry relative="1" as="geometry" />
        </mxCell>
        <mxCell id="5" value="" style="ellipse;shape=startState;fillColor=#000000;strokeColor=none;" parent="5HN4UKg1Xnu_4getq7X6-50" vertex="1">
          <mxGeometry x="80" y="40" width="30" height="30" as="geometry" />
        </mxCell>
        <mxCell id="5HN4UKg1Xnu_4getq7X6-56" value="View&lt;br&gt;Email" style="rounded=1;whiteSpace=wrap;html=1;" parent="5HN4UKg1Xnu_4getq7X6-50" vertex="1">
          <mxGeometry x="45" y="110" width="100" height="40" as="geometry" />
        </mxCell>
        <mxCell id="5HN4UKg1Xnu_4getq7X6-98" value="Choose&lt;br&gt;the Email" style="rounded=1;whiteSpace=wrap;html=1;" parent="5HN4UKg1Xnu_4getq7X6-50" vertex="1">
          <mxGeometry x="72.5" y="270" width="105" height="40" as="geometry" />
        </mxCell>
        <mxCell id="m0uHN0fnXdyNOFm_q_yZ-52" style="edgeStyle=orthogonalEdgeStyle;rounded=0;orthogonalLoop=1;jettySize=auto;html=1;exitX=0;exitY=0.5;exitDx=0;exitDy=0;" parent="5HN4UKg1Xnu_4getq7X6-49" source="5HN4UKg1Xnu_4getq7X6-122" target="5HN4UKg1Xnu_4getq7X6-98" edge="1">
          <mxGeometry relative="1" as="geometry" />
        </mxCell>
        <mxCell id="sQ1NZdNKqNfSs0jnybmJ-15" style="edgeStyle=orthogonalEdgeStyle;rounded=0;orthogonalLoop=1;jettySize=auto;html=1;exitX=0.5;exitY=1;exitDx=0;exitDy=0;entryX=0;entryY=0.5;entryDx=0;entryDy=0;" edge="1" parent="5HN4UKg1Xnu_4getq7X6-49" source="5HN4UKg1Xnu_4getq7X6-98" target="m0uHN0fnXdyNOFm_q_yZ-53">
          <mxGeometry relative="1" as="geometry" />
        </mxCell>
        <mxCell id="5HN4UKg1Xnu_4getq7X6-51" value="System" style="swimlane;startSize=20;html=1;" parent="5HN4UKg1Xnu_4getq7X6-49" vertex="1">
          <mxGeometry x="220" y="20" width="300" height="510" as="geometry" />
        </mxCell>
        <mxCell id="5HN4UKg1Xnu_4getq7X6-85" value="[Yes]" style="text;html=1;strokeColor=none;fillColor=none;align=center;verticalAlign=middle;whiteSpace=wrap;rounded=0;" parent="5HN4UKg1Xnu_4getq7X6-51" vertex="1">
          <mxGeometry x="155.5" y="345" width="76" height="30" as="geometry" />
        </mxCell>
        <mxCell id="m0uHN0fnXdyNOFm_q_yZ-74" style="rounded=0;orthogonalLoop=1;jettySize=auto;html=1;exitX=0.5;exitY=1;exitDx=0;exitDy=0;" parent="5HN4UKg1Xnu_4getq7X6-51" source="m0uHN0fnXdyNOFm_q_yZ-53" edge="1">
          <mxGeometry relative="1" as="geometry">
            <mxPoint x="60" y="290" as="targetPoint" />
            <Array as="points">
              <mxPoint x="133" y="450" />
              <mxPoint x="-170" y="450" />
              <mxPoint x="-170" y="260" />
              <mxPoint x="60" y="260" />
            </Array>
          </mxGeometry>
        </mxCell>
        <mxCell id="5HN4UKg1Xnu_4getq7X6-86" value="[No]" style="text;html=1;strokeColor=none;fillColor=none;align=center;verticalAlign=middle;whiteSpace=wrap;rounded=0;" parent="5HN4UKg1Xnu_4getq7X6-51" vertex="1">
          <mxGeometry x="80" y="385" width="73" height="30" as="geometry" />
        </mxCell>
        <mxCell id="5HN4UKg1Xnu_4getq7X6-122" value="Display&lt;br&gt;All Email" style="rounded=1;whiteSpace=wrap;html=1;" parent="5HN4UKg1Xnu_4getq7X6-51" vertex="1">
          <mxGeometry x="100" y="270" width="105" height="40" as="geometry" />
        </mxCell>
        <mxCell id="m0uHN0fnXdyNOFm_q_yZ-73" style="rounded=0;orthogonalLoop=1;jettySize=auto;html=1;exitX=1;exitY=0.5;exitDx=0;exitDy=0;entryX=0;entryY=0.5;entryDx=0;entryDy=0;" parent="5HN4UKg1Xnu_4getq7X6-51" source="m0uHN0fnXdyNOFm_q_yZ-53" target="m0uHN0fnXdyNOFm_q_yZ-72" edge="1">
          <mxGeometry relative="1" as="geometry" />
        </mxCell>
        <mxCell id="m0uHN0fnXdyNOFm_q_yZ-53" value="" style="rhombus;whiteSpace=wrap;html=1;" parent="5HN4UKg1Xnu_4getq7X6-51" vertex="1">
          <mxGeometry x="113" y="356.5" width="40" height="27" as="geometry" />
        </mxCell>
        <mxCell id="m0uHN0fnXdyNOFm_q_yZ-72" value="" style="ellipse;html=1;shape=endState;fillColor=#000000;strokeColor=#000000;" parent="5HN4UKg1Xnu_4getq7X6-51" vertex="1">
          <mxGeometry x="230.5" y="355" width="30" height="30" as="geometry" />
        </mxCell>
        <mxCell id="sQ1NZdNKqNfSs0jnybmJ-5" value="Display Email &lt;br&gt;Box" style="rounded=1;whiteSpace=wrap;html=1;" vertex="1" parent="5HN4UKg1Xnu_4getq7X6-51">
          <mxGeometry x="102.5" y="110" width="105" height="40" as="geometry" />
        </mxCell>
        <mxCell id="sQ1NZdNKqNfSs0jnybmJ-10" value="Request &lt;br&gt;Emails" style="rounded=1;whiteSpace=wrap;html=1;" vertex="1" parent="5HN4UKg1Xnu_4getq7X6-51">
          <mxGeometry x="102.5" y="190" width="105" height="40" as="geometry" />
        </mxCell>
        <mxCell id="sQ1NZdNKqNfSs0jnybmJ-11" style="edgeStyle=orthogonalEdgeStyle;rounded=0;orthogonalLoop=1;jettySize=auto;html=1;exitX=0.5;exitY=1;exitDx=0;exitDy=0;entryX=0.5;entryY=0;entryDx=0;entryDy=0;" edge="1" parent="5HN4UKg1Xnu_4getq7X6-51" source="sQ1NZdNKqNfSs0jnybmJ-5" target="sQ1NZdNKqNfSs0jnybmJ-10">
          <mxGeometry relative="1" as="geometry" />
        </mxCell>
        <mxCell id="sQ1NZdNKqNfSs0jnybmJ-7" style="edgeStyle=orthogonalEdgeStyle;rounded=0;orthogonalLoop=1;jettySize=auto;html=1;exitX=1;exitY=0.5;exitDx=0;exitDy=0;" edge="1" parent="5HN4UKg1Xnu_4getq7X6-49" source="5HN4UKg1Xnu_4getq7X6-56" target="sQ1NZdNKqNfSs0jnybmJ-5">
          <mxGeometry relative="1" as="geometry" />
        </mxCell>
        <mxCell id="m0uHN0fnXdyNOFm_q_yZ-5" value="Email Server" style="swimlane;startSize=20;html=1;" parent="5HN4UKg1Xnu_4getq7X6-49" vertex="1">
          <mxGeometry x="520" y="20" width="220" height="510" as="geometry" />
        </mxCell>
        <mxCell id="sQ1NZdNKqNfSs0jnybmJ-9" value="Respond Relevant API" style="rounded=1;whiteSpace=wrap;html=1;" vertex="1" parent="m0uHN0fnXdyNOFm_q_yZ-5">
          <mxGeometry x="67.5" y="190" width="105" height="40" as="geometry" />
        </mxCell>
        <mxCell id="sQ1NZdNKqNfSs0jnybmJ-12" style="edgeStyle=orthogonalEdgeStyle;rounded=0;orthogonalLoop=1;jettySize=auto;html=1;exitX=1;exitY=0.5;exitDx=0;exitDy=0;" edge="1" parent="5HN4UKg1Xnu_4getq7X6-49" source="sQ1NZdNKqNfSs0jnybmJ-10" target="sQ1NZdNKqNfSs0jnybmJ-9">
          <mxGeometry relative="1" as="geometry" />
        </mxCell>
        <mxCell id="sQ1NZdNKqNfSs0jnybmJ-13" style="edgeStyle=orthogonalEdgeStyle;rounded=0;orthogonalLoop=1;jettySize=auto;html=1;exitX=0.5;exitY=1;exitDx=0;exitDy=0;entryX=1;entryY=0.5;entryDx=0;entryDy=0;" edge="1" parent="5HN4UKg1Xnu_4getq7X6-49" source="sQ1NZdNKqNfSs0jnybmJ-9" target="5HN4UKg1Xnu_4getq7X6-122">
          <mxGeometry relative="1" as="geometry" />
        </mxCell>
      </root>
    </mxGraphModel>
  </diagram>
</mxfile>
